<svg width="87" height="57" viewBox="0 0 87 57" fill="none" xmlns="http://www.w3.org/2000/svg">
<path d="M66.9253 36.48C66.9253 35.68 66.6853 34.96 66.2053 34.32C65.7253 33.68 65.0053 33.04 64.0453 32.4C60.5253 30.32 57.8853 28 56.1253 25.44C54.3653 22.88 53.4853 20.16 53.4853 17.28C53.4853 12.64 55.1653 8.71999 58.5253 5.51999C62.0453 2.15999 66.2053 0.479994 71.0053 0.479994C75.6453 0.479994 79.3253 1.91999 82.0453 4.8C84.9253 7.68 86.3653 11.52 86.3653 16.32C86.3653 22.72 83.7253 29.68 78.4453 37.2C73.1653 44.56 66.1253 51.04 57.3253 56.64C56.5253 56.16 55.9653 55.68 55.6453 55.2C55.3253 54.56 55.1653 53.92 55.1653 53.28L66.9253 36.48ZM14.1253 36.48C14.1253 35.68 13.8853 34.96 13.4053 34.32C12.9253 33.68 12.2053 33.04 11.2453 32.4C7.72531 30.32 5.08531 28 3.32531 25.44C1.56531 22.88 0.685314 20.16 0.685314 17.28C0.685314 12.64 2.36531 8.71999 5.72531 5.51999C9.24531 2.15999 13.4053 0.479994 18.2053 0.479994C22.8453 0.479994 26.5253 1.91999 29.2453 4.8C32.1253 7.68 33.5653 11.52 33.5653 16.32C33.5653 22.72 30.9253 29.68 25.6453 37.2C20.3653 44.56 13.3253 51.04 4.52531 56.64C3.72531 56.16 3.16531 55.68 2.84531 55.2C2.52531 54.56 2.36531 53.92 2.36531 53.28L14.1253 36.48Z" fill="white" opacity="0.1"/>
</svg>
