<svg width="350" height="350" viewBox="0 0 350 350" fill="none" xmlns="http://www.w3.org/2000/svg">
<circle cx="83.3984" cy="83.3984" r="83.3984" fill="white"/>
<rect x="83.3984" y="83.3984" width="83.3984" height="83.3984" fill="white"/>
<circle cx="83.3984" cy="266.602" r="83.3984" fill="white"/>
<rect x="83.3984" y="183.203" width="83.3984" height="83.3984" fill="white"/>
<circle cx="266.602" cy="266.602" r="83.3984" fill="white"/>
<rect x="183.203" y="183.203" width="83.3984" height="83.3984" fill="white"/>
<path fill-rule="evenodd" clip-rule="evenodd" d="M266.602 166.797C312.661 166.797 350 129.458 350 83.3984C350 37.3388 312.661 0 266.602 0C220.542 0 183.203 37.3388 183.203 83.3984C183.203 129.458 220.542 166.797 266.602 166.797ZM266.602 150.391C303.6 150.391 333.594 120.397 333.594 83.3984C333.594 46.3997 303.6 16.4062 266.602 16.4062C229.603 16.4062 199.609 46.3997 199.609 83.3984C199.609 120.397 229.603 150.391 266.602 150.391Z" fill="white"/>
<path fill-rule="evenodd" clip-rule="evenodd" d="M199.609 83.3984H183.203V166.797H266.602V150.391C229.603 150.391 199.609 120.397 199.609 83.3984Z" fill="white"/>
<path fill-rule="evenodd" clip-rule="evenodd" d="M350 0H266.602V16.4062C303.6 16.4062 333.594 46.3997 333.594 83.3984H350V0Z" fill="white"/>
</svg>
